<?xml version="1.0" encoding="UTF-8" standalone="no"?>
<svg
   xmlns:dc="http://purl.org/dc/elements/1.1/"
   xmlns:cc="http://creativecommons.org/ns#"
   xmlns:rdf="http://www.w3.org/1999/02/22-rdf-syntax-ns#"
   xmlns:svg="http://www.w3.org/2000/svg"
   xmlns="http://www.w3.org/2000/svg"
   xmlns:sodipodi="http://sodipodi.sourceforge.net/DTD/sodipodi-0.dtd"
   xmlns:inkscape="http://www.inkscape.org/namespaces/inkscape"
   version="1.1"
   style="overflow:hidden"
   id="svg4"
   sodipodi:docname="github.svg"
   inkscape:version="0.92.2 (5c3e80d, 2017-08-06)"
   width="18"
   height="18">
  <defs
     id="defs8" />
  <path
     d="m 0,9.2344688 q 0,2.9939882 1.6787111,5.3837672 1.6787112,2.38978 4.3505859,3.345693 0.1054692,0.01804 0.1757815,0.01804 0.070315,0 0.1142576,-0.02705 0.043949,-0.02706 0.070315,-0.05411 0.026366,-0.02706 0.035158,-0.09018 0.00879,-0.06313 0.00879,-0.08116 V 15.90782 Q 5.7832032,15.97996 5.2734374,15.89882 4.7636716,15.817636 4.4736326,15.646294 4.1835935,15.474951 3.963867,15.222446 3.7441405,14.969941 3.6650388,14.762526 3.5859373,14.555112 3.5068358,14.32966 3.4277342,14.10421 3.410156,14.068138 3.2519529,13.797596 2.9355467,13.572145 2.6191404,13.346695 2.4609372,13.211424 2.3027342,13.076153 2.425781,12.949901 3.3046872,12.480963 4.4121093,14.140282 5.0097655,15.060121 6.5039059,14.681364 6.6796874,13.941885 7.2070304,13.418839 5.1679682,13.040081 4.1835934,11.867736 3.1992185,10.695392 3.1992185,9.0180375 q 0,-1.5691385 0.966797,-2.7234483 Q 3.7792966,5.1222456 4.2714842,3.8236485 4.7812497,3.7875765 5.414062,4.0310633 6.0468751,4.2745493 6.301758,4.4458927 6.5566402,4.6172354 6.7499998,4.7615241 7.7519523,4.4729467 9.008788,4.4729467 q 1.256836,0 2.276368,0.2885774 0.228516,-0.1623254 0.509765,-0.3426861 0.28125,-0.1803607 0.861328,-0.3877747 0.580079,-0.2074148 1.072266,-0.1713428 0.474609,1.2805604 0.105469,2.4348687 0.984375,1.1543098 0.984375,2.7414843 0,1.6593185 -0.993164,2.8406805 -0.993164,1.181363 -3.014649,1.542085 0.75586,0.775551 0.75586,1.875751 v 2.326653 q 0,0.01804 0.01758,0.05411 0,0.108216 0.0088,0.162325 0.0088,0.05411 0.0791,0.108216 Q 11.742189,18 11.865234,18 14.572266,17.062124 16.286133,14.654308 18,12.246492 18,9.2344688 18,7.3587168 17.288086,5.6452904 16.576172,3.9318638 15.37207,2.6963928 14.167969,1.4609218 12.498047,0.73046088 10.828125,0 8.9999996,0 7.1718751,0 5.5019539,0.73046088 3.8320315,1.4609218 2.6279299,2.6963928 1.4238282,3.9318638 0.71191407,5.6452904 -7.2000002e-8,7.3587176 0,9.2344688 Z"
     id="path2"
     inkscape:connector-curvature="0"
     style="stroke-width:0.01780563" />
</svg>
