<?xml version="1.0" encoding="UTF-8" standalone="no"?>
<svg
   xmlns:dc="http://purl.org/dc/elements/1.1/"
   xmlns:cc="http://creativecommons.org/ns#"
   xmlns:rdf="http://www.w3.org/1999/02/22-rdf-syntax-ns#"
   xmlns:svg="http://www.w3.org/2000/svg"
   xmlns="http://www.w3.org/2000/svg"
   xmlns:sodipodi="http://sodipodi.sourceforge.net/DTD/sodipodi-0.dtd"
   xmlns:inkscape="http://www.inkscape.org/namespaces/inkscape"
   version="1.1"
   style="width:0;height:0;position:absolute;overflow:hidden;"
   id="svg4"
   width="100"
   height="100"
   viewBox="0 0 100 100"
   sodipodi:docname="nodejs-logo.svg"
   inkscape:version="0.92.2 (5c3e80d, 2017-08-06)">
  <metadata
     id="metadata10">
    <rdf:RDF>
      <cc:Work
         rdf:about="">
        <dc:format>image/svg+xml</dc:format>
        <dc:type
           rdf:resource="http://purl.org/dc/dcmitype/StillImage" />
      </cc:Work>
    </rdf:RDF>
  </metadata>
  <defs
     id="defs8" />
  <sodipodi:namedview
     pagecolor="#ffffff"
     bordercolor="#666666"
     borderopacity="1"
     objecttolerance="10"
     gridtolerance="10"
     guidetolerance="10"
     inkscape:pageopacity="0"
     inkscape:pageshadow="2"
     inkscape:window-width="3836"
     inkscape:window-height="2088"
     id="namedview6"
     showgrid="false"
     inkscape:zoom="2.36"
     inkscape:cx="50.847458"
     inkscape:cy="50"
     inkscape:window-x="0"
     inkscape:window-y="0"
     inkscape:window-maximized="1"
     inkscape:current-layer="svg4" />
  <path
     d="m 50.372878,99.99965 c -1.377986,0 -2.664106,-0.36746 -3.858361,-1.01052 L 34.295683,91.73139 c -1.837315,-1.01052 -0.918657,-1.37798 -0.367463,-1.56172 2.480374,-0.82679 2.939703,-1.01052 5.511943,-2.48072 0.275944,-0.18373 0.643407,-0.0919 0.918658,0.0919 l 9.370997,5.60415 c 0.367463,0.18374 0.826791,0.18374 1.102388,0 L 87.488363,72.1633 c 0.367463,-0.18373 0.551195,-0.5512 0.551195,-1.01052 V 28.8006 c 0,-0.45933 -0.183732,-0.82679 -0.551195,-1.01053 L 50.832206,6.65992 c -0.367463,-0.18373 -0.826791,-0.18373 -1.102388,0 l -36.656157,21.1305 c -0.367463,0.18373 -0.551195,0.64306 -0.551195,1.01052 v 42.35184 c 0,0.36746 0.183732,0.82679 0.551195,1.01052 l 10.014057,5.78754 c 5.420424,2.75597 8.819109,-0.45933 8.819109,-3.67463 V 32.47523 c 0,-0.5512 0.459676,-1.10239 1.102736,-1.10239 h 4.685498 c 0.551195,0 1.102389,0.45933 1.102389,1.10239 v 41.80063 c 0,7.25774 -3.950573,11.48357 -10.840849,11.48357 -2.112911,0 -3.766494,0 -8.451646,-2.29665 L 9.8583604,77.95084 C 7.4698516,76.57251 6,74.00027 6,71.2443 V 28.89281 C 6,26.13684 7.4698516,23.5646 9.8583604,22.18627 L 46.514517,0.96459 c 2.296643,-1.28612 5.420078,-1.28612 7.716721,0 l 36.656157,21.22168 c 2.388509,1.37798 3.858361,3.95022 3.858361,6.70654 v 42.35183 c 0,2.75597 -1.469852,5.32821 -3.858361,6.7062 L 54.231238,99.17321 C 53.036984,99.7244 51.658998,100 50.372878,100 Z m 11.29983,-29.12282 c -16.077195,0 -19.384361,-7.34926 -19.384361,-13.59647 0,-0.5512 0.459329,-1.10239 1.102389,-1.10239 h 4.777018 c 0.551194,0 1.010869,0.36746 1.010869,0.91866 0.734926,4.86888 2.847838,7.25774 12.585951,7.25774 7.717068,0 11.02458,-1.74545 11.02458,-5.87941 0,-2.38886 -0.918657,-4.1343 -12.95376,-5.32891 -10.013711,-1.01052 -16.260926,-3.2153 -16.260926,-11.20761 0,-7.44182 6.246869,-11.85138 16.720255,-11.85138 11.759159,0 17.547046,4.0421 18.281972,12.86155 0,0.2756 -0.09187,0.5512 -0.275597,0.82679 -0.183732,0.18374 -0.459329,0.36747 -0.734926,0.36747 h -4.777018 c -0.459675,0 -0.918657,-0.36747 -1.010869,-0.82679 -1.102389,-5.05262 -3.950226,-6.7062 -11.483562,-6.7062 -8.451647,0 -9.462517,2.9397 -9.462517,5.14448 0,2.66445 1.194255,3.4909 12.585951,4.96075 11.300177,1.46985 16.628389,3.58311 16.628389,11.48391 -0.09187,8.08453 -6.706197,12.67781 -18.373838,12.67781 z"
     id="path2"
     inkscape:connector-curvature="0"
     style="fill:#539e43;stroke-width:0.34666312" />
</svg>
