<?xml version="1.0" encoding="UTF-8" standalone="no"?>
<svg
   xmlns:dc="http://purl.org/dc/elements/1.1/"
   xmlns:cc="http://creativecommons.org/ns#"
   xmlns:rdf="http://www.w3.org/1999/02/22-rdf-syntax-ns#"
   xmlns:svg="http://www.w3.org/2000/svg"
   xmlns="http://www.w3.org/2000/svg"
   xmlns:sodipodi="http://sodipodi.sourceforge.net/DTD/sodipodi-0.dtd"
   xmlns:inkscape="http://www.inkscape.org/namespaces/inkscape"
   version="1.1"
   style="width:0;height:0;position:absolute;overflow:hidden;"
   id="svg10"
   width="100"
   height="100"
   viewBox="0 0 100 100"
   sodipodi:docname="react-logo.svg"
   inkscape:version="0.92.2 (5c3e80d, 2017-08-06)">
  <metadata
     id="metadata16">
    <rdf:RDF>
      <cc:Work
         rdf:about="">
        <dc:format>image/svg+xml</dc:format>
        <dc:type
           rdf:resource="http://purl.org/dc/dcmitype/StillImage" />
        <dc:title />
      </cc:Work>
    </rdf:RDF>
  </metadata>
  <defs
     id="defs14" />
  <sodipodi:namedview
     pagecolor="#ffffff"
     bordercolor="#666666"
     borderopacity="1"
     objecttolerance="10"
     gridtolerance="10"
     guidetolerance="10"
     inkscape:pageopacity="0"
     inkscape:pageshadow="2"
     inkscape:window-width="3836"
     inkscape:window-height="2088"
     id="namedview12"
     showgrid="false"
     inkscape:zoom="9.44"
     inkscape:cx="50.30527"
     inkscape:cy="29.583815"
     inkscape:window-x="3840"
     inkscape:window-y="0"
     inkscape:window-maximized="1"
     inkscape:current-layer="svg10" />
  <path
     d="m -6,49.470444 c 0,8.45843 8.2594655,16.354296 21.280572,20.805154 -2.600259,13.090212 -0.465732,23.641363 6.662862,27.75239 7.327123,4.225912 18.243195,1.30079 28.604174,-7.756325 10.099502,8.691301 20.306411,12.111657 27.428842,7.988747 7.32052,-4.2378 9.54661,-15.504272 6.874598,-29.003441 C 98.4136,64.773105 106,58.040247 106,49.470444 106,41.208327 97.72557,34.060812 84.87966,29.638559 87.756365,15.581663 85.318979,5.286723 77.895012,1.0057813 70.737806,-3.1215305 60.412043,0.47577491 50.164194,9.3942228 39.502559,-0.07182669 29.278921,-2.9617401 21.862877,1.3310853 14.712274,5.4702793 12.671949,16.213354 15.280572,29.545678 2.6987855,33.93227 -6,41.241782 -6,49.470444 Z"
     id="path2"
     inkscape:connector-curvature="0"
     style="fill:#ffffff;stroke-width:0.44019967" />
  <path
     d="M 82.159226,34.030001 A 66.630381,66.630381 0 0 0 78.957215,33.02106 60.527453,60.527453 0 0 0 79.451998,30.837228 C 81.875738,19.071572 80.291019,9.5931908 74.879204,6.4730612 69.690571,3.4805781 61.204402,6.6007188 52.633715,14.059012 a 66.530016,66.530016 0 0 0 -2.476563,2.27276 60.559588,60.559588 0 0 0 -1.648108,-1.522215 C 39.526769,6.8340148 30.523366,3.4735333 25.117274,6.602914 19.933482,9.6037524 18.398067,18.514719 20.580136,29.66498 a 66.430531,66.430531 0 0 0 0.735133,3.294446 c -1.273937,0.36185 -2.504295,0.747466 -3.68139,1.157733 C 7.103423,37.788418 0.3780528,43.54271 0.3780528,49.510932 c 0,6.164558 7.2192752,12.347608 18.1881692,16.096349 a 56.539244,56.539244 0 0 0 2.689621,0.840784 65.067232,65.067232 0 0 0 -0.781355,3.551083 c -2.080384,10.956568 -0.455607,19.656235 4.714538,22.638594 5.340063,3.079193 14.302528,-0.08579 23.029926,-7.714504 0.689793,-0.603076 1.382227,-1.242685 2.075542,-1.913106 a 65.299218,65.299218 0 0 0 2.688739,2.453237 c 8.453594,7.274299 16.802422,10.211745 21.968164,7.221469 5.33522,-3.088434 7.068727,-12.434319 4.817546,-23.805119 -0.171679,-0.868515 -0.371969,-1.75551 -0.596471,-2.658801 0.629485,-0.185764 1.247085,-0.377698 1.849719,-0.57754 11.402932,-3.777793 18.821619,-9.885568 18.821619,-16.132446 0,-5.989794 -6.941951,-11.782814 -17.684584,-15.480931 z"
     id="path4"
     inkscape:connector-curvature="0"
     style="fill:#53c1de;stroke-width:0.44019967" />
  <path
     d="m 79.685744,61.61027 c -0.543646,0.18004 -1.10182,0.35392 -1.670557,0.522513 -1.258972,-3.985128 -2.958142,-8.222928 -5.036764,-12.600717 1.983979,-4.274334 3.617121,-8.457556 4.840875,-12.417148 1.017302,0.294929 2.005109,0.60527 2.956821,0.933217 9.204575,3.168122 14.818881,7.85316 14.818881,11.462797 0,3.84515 -6.06375,8.837013 -15.908815,12.099338 z m -4.085053,8.094822 c 0.995293,5.02796 1.137477,9.573906 0.478058,13.127643 -0.592509,3.19321 -1.78369,5.322005 -3.256597,6.174672 -3.134662,1.814512 -9.838464,-0.544085 -17.067422,-6.764979 -0.828896,-0.713126 -1.663955,-1.47467 -2.501214,-2.280242 2.802751,-3.065552 5.603742,-6.629403 8.337381,-10.5868 4.808741,-0.426552 9.351602,-1.124267 13.47143,-2.076424 0.202492,0.818776 0.382974,1.621256 0.538364,2.40613 z M 34.287953,88.693986 c -3.062468,1.081573 -5.501615,1.112384 -6.975843,0.26236 -3.137744,-1.809214 -4.441615,-8.795192 -2.662768,-18.164832 a 60.970735,60.970735 0 0 1 0.726329,-3.302387 c 4.074048,0.901096 8.583894,1.549509 13.404079,1.9404 2.751689,3.872445 5.633677,7.431895 8.538113,10.548944 a 52.323452,52.323452 0 0 1 -1.895059,1.74496 c -3.859231,3.373687 -7.726385,5.766611 -11.13441,6.970555 z M 19.940526,61.586492 C 15.090406,59.928702 11.085029,57.77437 8.339504,55.423703 5.872625,53.310745 4.62686,51.213186 4.62686,49.510932 c 0,-3.62152 5.399929,-8.241408 14.405974,-11.381362 a 61.309248,61.309248 0 0 1 3.423433,-1.07716 c 1.244884,4.048509 2.877585,8.281471 4.847919,12.561976 -1.995865,4.344324 -3.651897,8.644642 -4.908227,12.740695 a 52.343262,52.343262 0 0 1 -2.455433,-0.768589 z m 4.809622,-32.737645 c -1.869529,-9.553656 -0.628166,-16.760162 2.495932,-18.568503 3.327909,-1.92631 10.685846,0.820535 18.441284,7.706575 0.495665,0.440205 0.993531,0.901085 1.492277,1.377824 -2.88947,3.102971 -5.745046,6.635575 -8.472964,10.485552 -4.678001,0.433597 -9.156152,1.130002 -13.272899,2.062783 a 62.299257,62.299257 0 0 1 -0.68363,-3.064668 z m 42.90494,10.594282 a 135.13338,135.13338 0 0 0 -3.024612,-4.974256 c 3.173839,0.400579 6.214299,0.933229 9.069434,1.585158 -0.857069,2.747293 -1.925433,5.620037 -3.183525,8.564965 A 148.09197,148.09197 0 0 0 67.655088,39.443129 Z M 50.158472,22.401242 c 1.959768,2.123084 3.922619,4.494 5.853335,7.06608 a 125.12455,125.12455 0 0 0 -11.755972,-0.0022 c 1.932476,-2.548324 3.912054,-4.915713 5.902637,-7.063448 z m -17.608867,17.07094 a 125.56255,125.56255 0 0 0 -2.807594,5.143734 c -1.2374,-2.934814 -2.29608,-5.820315 -3.160633,-8.606786 2.837967,-0.635208 5.86434,-1.154204 9.01749,-1.548176 a 124.92426,124.92426 0 0 0 -3.049263,5.011228 z m 3.139944,25.392035 c -3.257477,-0.363597 -6.32963,-0.856184 -9.166718,-1.473786 0.878199,-2.835761 1.960209,-5.783344 3.224023,-8.781102 a 124.79396,124.79396 0 0 0 2.819919,5.146814 125.57576,125.57576 0 0 0 3.122776,5.108074 z m 14.586456,12.056632 c -2.013913,-2.173271 -4.022544,-4.576757 -5.984514,-7.162053 1.904304,0.07482 3.846024,0.112694 5.819439,0.112694 2.02756,0 4.031789,-0.04536 6.004324,-0.13338 -1.936879,2.632392 -3.892686,5.039406 -5.839249,7.182739 z M 70.556884,54.456583 c 1.329403,3.030328 2.450152,5.962063 3.340235,8.749843 -2.884189,0.658101 -5.99772,1.188108 -9.278528,1.581642 a 148.58367,148.58367 0 0 0 3.053665,-5.061414 134.9793,134.9793 0 0 0 2.884628,-5.270071 z m -6.565577,3.147424 A 139.31351,139.31351 0 0 1 59.219542,65.3031 c -2.951099,0.210851 -6.000802,0.319581 -9.108612,0.319581 -3.095043,0 -6.106009,-0.09643 -9.005605,-0.284368 A 120.52579,120.52579 0 0 1 36.2442,57.627337 119.44113,119.44113 0 0 1 32.000676,49.613065 120.55484,120.55484 0 0 1 36.231435,41.594391 v 8.74e-4 a 119.40504,119.40504 0 0 1 4.822827,-7.677959 c 2.958142,-0.223619 5.991118,-0.340715 9.057109,-0.340715 3.079637,0 6.116574,0.11797 9.073835,0.343359 a 127.96781,127.96781 0 0 1 4.792453,7.651985 139.2871,139.2871 0 0 1 4.287985,7.980818 128.01271,128.01271 0 0 1 -4.273897,8.051254 z m 8.765695,-47.449999 c 3.330551,1.921024 4.626058,9.667225 2.53335,19.825714 a 56.136462,56.136462 0 0 1 -0.447243,1.977372 c -4.126432,-0.952146 -8.607665,-1.660871 -13.299313,-2.101076 -2.7332,-3.891798 -5.565004,-7.430561 -8.407814,-10.49347 a 62.473136,62.473136 0 0 1 2.287278,-2.097995 c 7.343411,-6.390821 14.206563,-8.914047 17.333742,-7.110545 z"
     id="path6"
     inkscape:connector-curvature="0"
     style="fill:#ffffff;stroke-width:0.44019967" />
  <path
     d="m 50.11093,40.62903 c 4.905586,0 8.881908,3.976761 8.881908,8.881902 0,4.905589 -3.976322,8.88235 -8.881908,8.88235 -4.905145,0 -8.881909,-3.976761 -8.881909,-8.88235 0,-4.905141 3.976764,-8.881902 8.881909,-8.881902"
     id="path8"
     inkscape:connector-curvature="0"
     style="fill:#53c1de;stroke-width:0.44019967" />
</svg>
