<?xml version="1.0" encoding="UTF-8" standalone="no"?>
<svg
   xmlns:dc="http://purl.org/dc/elements/1.1/"
   xmlns:cc="http://creativecommons.org/ns#"
   xmlns:rdf="http://www.w3.org/1999/02/22-rdf-syntax-ns#"
   xmlns:svg="http://www.w3.org/2000/svg"
   xmlns="http://www.w3.org/2000/svg"
   xmlns:sodipodi="http://sodipodi.sourceforge.net/DTD/sodipodi-0.dtd"
   xmlns:inkscape="http://www.inkscape.org/namespaces/inkscape"
   version="1.1"
   style="width:0;height:0;position:absolute;overflow:hidden;"
   width="100"
   height="100"
   viewBox="0 0 100 100"
   id="svg4"
   sodipodi:docname="netlify-logo.svg"
   inkscape:version="0.92.2 (5c3e80d, 2017-08-06)">
  <metadata
     id="metadata10">
    <rdf:RDF>
      <cc:Work
         rdf:about="">
        <dc:format>image/svg+xml</dc:format>
        <dc:type
           rdf:resource="http://purl.org/dc/dcmitype/StillImage" />
        <dc:title></dc:title>
      </cc:Work>
    </rdf:RDF>
  </metadata>
  <defs
     id="defs8" />
  <sodipodi:namedview
     pagecolor="#ffffff"
     bordercolor="#666666"
     borderopacity="1"
     objecttolerance="10"
     gridtolerance="10"
     guidetolerance="10"
     inkscape:pageopacity="0"
     inkscape:pageshadow="2"
     inkscape:window-width="3836"
     inkscape:window-height="2088"
     id="namedview6"
     showgrid="false"
     inkscape:zoom="2.36"
     inkscape:cx="50.847458"
     inkscape:cy="50"
     inkscape:window-x="0"
     inkscape:window-y="0"
     inkscape:window-maximized="1"
     inkscape:current-layer="svg4" />
  <path
     d="M 59.801409,64.71735 35.276402,59.59243 A 5.7151451,5.7151451 0 0 1 34.93422,60.16859 L 57.260824,92.73761 58.607678,91.39232 62.406056,67.7716 A 4.4757113,4.4757113 0 0 1 59.801409,64.71696 Z M 50.854674,32.65769 c -0.918735,1.40936 -2.504648,2.34215 -4.31087,2.34215 -0.278121,0 -0.548429,-0.0281 -0.81405,-0.0703 L 34.545163,52.42966 64.426728,39.57049 c -0.0094,-0.12032 -0.03594,-0.23281 -0.03594,-0.35625 0,-0.25156 0.03437,-0.4953 0.075,-0.73592 L 50.854672,32.65809 Z m 0.812487,-3.18901 14.47829,6.19053 a 4.4714145,4.4714145 0 0 1 1.553101,-0.78436 L 70.078202,20.0782 61.012328,11.01233 50.8078,26.98005 a 5.0831237,5.0831237 0 0 1 0.859361,2.48902 z m 30.337417,2.5359 -9.085795,-9.08736 -1.97497,12.26856 a 4.5421165,4.5421165 0 0 1 1.326542,1.00936 z m -21.7688,29.48118 a 4.4354776,4.4354776 0 0 1 3.550335,-2.28278 L 66.395447,42.97355 C 66.190763,42.83761 66.007953,42.67511 65.828268,42.50793 L 35.774832,55.4421 c 0.07656,0.31406 0.129685,0.63437 0.154685,0.96717 z m 24.243761,-27.00466 -10.512335,4.52337 25.937485,11.08928 0.09375,-0.0937 z M 65.693895,67.82042 62.53457,87.46231 80.879596,69.11728 67.66574,66.35795 a 4.4397744,4.4397744 0 0 1 -1.971845,1.46247 z M 30.035859,62.7705 c -0.664052,0 -1.29998,-0.11406 -1.895283,-0.31601 l -6.093655,9.53618 -2.354651,-2.35309 5.771785,-9.03111 a 6.2756832,6.2756832 0 0 1 -0.398431,-0.5535 L 14.609537,64.55485 12.13106,62.07637 23.576194,57.14989 2.8847206,52.83121 0.05468665,50 0.94998516,49.1047 24.81094,54.08587 a 5.8518617,5.8518617 0 0 1 1.042172,-1.41247 l -11.581069,-16.89232 2.339026,-2.33902 12.09942,17.65011 a 5.9698286,5.9698286 0 0 1 1.324979,-0.15468 c 0.51093,0 1.006234,0.0719 1.479665,0.19374 L 42.837221,33.41549 a 5.1272636,5.1272636 0 0 1 -1.435915,-3.56088 c 0,-0.40624 0.05156,-0.79999 0.140623,-1.1781 L 27.41715,22.63754 29.894845,20.15945 43.277449,25.8828 A 5.1249199,5.1249199 0 0 1 48.21995,24.99688 L 58.658849,8.65924 50,0 0,50 50,100 54.920236,95.07976 32.426446,62.26387 A 5.9049859,5.9049859 0 0 1 30.035859,62.7705 Z M 69.57821,43.67315 66.923564,60.17172 a 4.43704,4.43704 0 0 1 1.639037,3.0519 L 83.629553,66.36888 97.426212,52.57223 72.523476,41.92513 a 4.4952423,4.4952423 0 0 1 -2.945266,1.74841 z"
     id="path2"
     inkscape:connector-curvature="0"
     style="fill:#25c7b7;stroke-width:0.39061889" />
</svg>
