<svg width="32" height="32" viewBox="0 0 32 32" fill="none" xmlns="http://www.w3.org/2000/svg">
<rect width="32" height="32" rx="6" fill="#2467A5"/>
<path d="M9.78125 6.40039H11.1973L10.9434 8.30469C11.2819 8.33724 11.6204 8.37956 11.959 8.43164C12.304 8.48372 12.623 8.54557 12.916 8.61719V10.1211C12.5579 10.0299 12.1966 9.95182 11.832 9.88672C11.4674 9.82161 11.1094 9.77279 10.7578 9.74023L10.2012 13.9199C10.6374 14.0892 11.0703 14.2747 11.5 14.4766C11.9297 14.6719 12.3138 14.9062 12.6523 15.1797C12.9974 15.4466 13.2741 15.7656 13.4824 16.1367C13.6973 16.5078 13.8047 16.9505 13.8047 17.4648C13.8047 18.0117 13.694 18.4967 13.4727 18.9199C13.2513 19.3431 12.9421 19.7012 12.5449 19.9941C12.1478 20.2871 11.6693 20.5182 11.1094 20.6875C10.5495 20.8503 9.93424 20.9479 9.26367 20.9805L8.94141 23.3047H7.51562L7.83789 20.9805C7.31055 20.9414 6.80599 20.8861 6.32422 20.8145C5.84896 20.7363 5.43555 20.6517 5.08398 20.5605V18.9395C5.49414 19.0827 5.9401 19.1999 6.42188 19.291C6.91016 19.3822 7.45052 19.444 8.04297 19.4766L8.61914 15.082C8.19596 14.9193 7.7793 14.7435 7.36914 14.5547C6.95898 14.3659 6.59115 14.1413 6.26562 13.8809C5.94661 13.6139 5.6862 13.3014 5.48438 12.9434C5.28255 12.5853 5.18164 12.1589 5.18164 11.6641C5.18164 11.2604 5.26628 10.8633 5.43555 10.4727C5.60482 10.0755 5.86849 9.7207 6.22656 9.4082C6.58464 9.08919 7.03711 8.82878 7.58398 8.62695C8.13086 8.41862 8.7819 8.29492 9.53711 8.25586L9.78125 6.40039ZM9.3418 9.7207C8.52799 9.79232 7.93229 9.98438 7.55469 10.2969C7.18359 10.6029 6.99805 10.9967 6.99805 11.4785C6.99805 11.9277 7.15104 12.2988 7.45703 12.5918C7.76953 12.8783 8.23177 13.1419 8.84375 13.3828L9.3418 9.7207ZM9.45898 19.4766C10.3379 19.4115 10.9759 19.2161 11.373 18.8906C11.7767 18.5651 11.9785 18.1224 11.9785 17.5625C11.9785 17.3281 11.9362 17.1198 11.8516 16.9375C11.7669 16.7487 11.64 16.5794 11.4707 16.4297C11.3014 16.2799 11.0898 16.14 10.8359 16.0098C10.5885 15.8796 10.2956 15.7493 9.95703 15.6191L9.45898 19.4766ZM25.5922 25.0039H14.5961V23.5977H25.5922V25.0039Z" fill="#EAEAF2"/>
</svg>
